# xmcd
#
# Track frame offsets:
#	150
#	13405
#	32930
#	49707
#	63132
#	76230
#	88545
#	100997
#	115080
#	125205
#	143797
#	154860
#	170787
#	182752
#
# Disc length: 2584
#
# Revision: 4
# Processed by: cddbd v1.5.1PL0 Copyright (c) Steve Scherf et al.
# Submitted via: Grip 2.6
# Normalized: r3:DSETVAR1
#
DISCID=bf0a160e
DTITLE=Various Artist - Groovin Soul [CD 1)
DYEAR=1900
DGENRE=
TTITLE0=Sam and Dave - Soul Man
TTITLE1=James Brown - Sexmachine
TTITLE2=Solomon Burke - Hold on I'm coming
TTITLE3=Ben E. King - Spanish Harlem
TTITLE4=Percy Sledge - My special prayer
TTITLE5=Mary Wells - My guy
TTITLE6=Sam Cooke - You send me
TTITLE7=Wilson Pickett - It's too late
TTITLE8=Gladys Knight and the Pips - Operator
TTITLE9=Freda Payne - Band of gold
TTITLE10=Big Dee Irwin (+Little Eva) - Swinging on a star
TTITLE11=Harold Melvin and the Bluenotes - If you don't know me by now
TTITLE12=The Fantastics - Something old, something new
TTITLE13=The Tams - Hey girl don't bother me
EXTD=
EXTT0=
EXTT1=
EXTT2=
EXTT3=
EXTT4=
EXTT5=
EXTT6=
EXTT7=
EXTT8=
EXTT9=
EXTT10=
EXTT11=
EXTT12=
EXTT13=
PLAYORDER=
